<mxfile host="app.diagrams.net" modified="2024-04-11T01:31:42.941Z" agent="Mozilla/5.0 (Windows NT 10.0; Win64; x64) AppleWebKit/537.36 (KHTML, like Gecko) Chrome/123.0.0.0 Safari/537.36 Edg/123.0.0.0" etag="tfbeFVQFF7nm3Re33tOv" version="24.2.3" type="github">
  <diagram name="Page-1" id="qqFg_T4T3m1fCk27V4T5">
    <mxGraphModel dx="1026" dy="505" grid="1" gridSize="10" guides="1" tooltips="1" connect="1" arrows="1" fold="1" page="1" pageScale="1" pageWidth="850" pageHeight="1100" math="0" shadow="0">
      <root>
        <mxCell id="0" />
        <mxCell id="1" parent="0" />
        <mxCell id="mykr_Vf041ZoasqlNyQm-1" value="" style="shape=table;startSize=0;container=1;collapsible=0;childLayout=tableLayout;" vertex="1" parent="1">
          <mxGeometry x="220" y="30" width="440" height="450" as="geometry" />
        </mxCell>
        <mxCell id="mykr_Vf041ZoasqlNyQm-2" value="" style="shape=tableRow;horizontal=0;startSize=0;swimlaneHead=0;swimlaneBody=0;strokeColor=inherit;top=0;left=0;bottom=0;right=0;collapsible=0;dropTarget=0;fillColor=none;points=[[0,0.5],[1,0.5]];portConstraint=eastwest;" vertex="1" parent="mykr_Vf041ZoasqlNyQm-1">
          <mxGeometry width="440" height="50" as="geometry" />
        </mxCell>
        <mxCell id="mykr_Vf041ZoasqlNyQm-3" value="" style="shape=partialRectangle;html=1;whiteSpace=wrap;connectable=0;strokeColor=inherit;overflow=hidden;fillColor=none;top=0;left=0;bottom=0;right=0;pointerEvents=1;" vertex="1" parent="mykr_Vf041ZoasqlNyQm-2">
          <mxGeometry width="65" height="50" as="geometry">
            <mxRectangle width="65" height="50" as="alternateBounds" />
          </mxGeometry>
        </mxCell>
        <mxCell id="mykr_Vf041ZoasqlNyQm-4" value="TCXO_4P" style="shape=partialRectangle;html=1;whiteSpace=wrap;connectable=0;strokeColor=inherit;overflow=hidden;fillColor=none;top=0;left=0;bottom=0;right=0;pointerEvents=1;" vertex="1" parent="mykr_Vf041ZoasqlNyQm-2">
          <mxGeometry x="65" width="125" height="50" as="geometry">
            <mxRectangle width="125" height="50" as="alternateBounds" />
          </mxGeometry>
        </mxCell>
        <mxCell id="mykr_Vf041ZoasqlNyQm-5" value="IDT5PB1102" style="shape=partialRectangle;html=1;whiteSpace=wrap;connectable=0;strokeColor=inherit;overflow=hidden;fillColor=none;top=0;left=0;bottom=0;right=0;pointerEvents=1;" vertex="1" parent="mykr_Vf041ZoasqlNyQm-2">
          <mxGeometry x="190" width="130" height="50" as="geometry">
            <mxRectangle width="130" height="50" as="alternateBounds" />
          </mxGeometry>
        </mxCell>
        <mxCell id="mykr_Vf041ZoasqlNyQm-6" value="CDCLVP1102" style="shape=partialRectangle;html=1;whiteSpace=wrap;connectable=0;strokeColor=inherit;overflow=hidden;fillColor=none;top=0;left=0;bottom=0;right=0;pointerEvents=1;" vertex="1" parent="mykr_Vf041ZoasqlNyQm-2">
          <mxGeometry x="320" width="120" height="50" as="geometry">
            <mxRectangle width="120" height="50" as="alternateBounds" />
          </mxGeometry>
        </mxCell>
        <mxCell id="mykr_Vf041ZoasqlNyQm-7" value="" style="shape=tableRow;horizontal=0;startSize=0;swimlaneHead=0;swimlaneBody=0;strokeColor=inherit;top=0;left=0;bottom=0;right=0;collapsible=0;dropTarget=0;fillColor=none;points=[[0,0.5],[1,0.5]];portConstraint=eastwest;" vertex="1" parent="mykr_Vf041ZoasqlNyQm-1">
          <mxGeometry y="50" width="440" height="50" as="geometry" />
        </mxCell>
        <mxCell id="mykr_Vf041ZoasqlNyQm-8" value="Fin&lt;span style=&quot;white-space: pre;&quot;&gt;&#x9;&lt;/span&gt;" style="shape=partialRectangle;html=1;whiteSpace=wrap;connectable=0;strokeColor=inherit;overflow=hidden;fillColor=none;top=0;left=0;bottom=0;right=0;pointerEvents=1;" vertex="1" parent="mykr_Vf041ZoasqlNyQm-7">
          <mxGeometry width="65" height="50" as="geometry">
            <mxRectangle width="65" height="50" as="alternateBounds" />
          </mxGeometry>
        </mxCell>
        <mxCell id="mykr_Vf041ZoasqlNyQm-9" value="" style="shape=partialRectangle;html=1;whiteSpace=wrap;connectable=0;strokeColor=inherit;overflow=hidden;fillColor=none;top=0;left=0;bottom=0;right=0;pointerEvents=1;" vertex="1" parent="mykr_Vf041ZoasqlNyQm-7">
          <mxGeometry x="65" width="125" height="50" as="geometry">
            <mxRectangle width="125" height="50" as="alternateBounds" />
          </mxGeometry>
        </mxCell>
        <mxCell id="mykr_Vf041ZoasqlNyQm-10" value="" style="shape=partialRectangle;html=1;whiteSpace=wrap;connectable=0;strokeColor=inherit;overflow=hidden;fillColor=none;top=0;left=0;bottom=0;right=0;pointerEvents=1;" vertex="1" parent="mykr_Vf041ZoasqlNyQm-7">
          <mxGeometry x="190" width="130" height="50" as="geometry">
            <mxRectangle width="130" height="50" as="alternateBounds" />
          </mxGeometry>
        </mxCell>
        <mxCell id="mykr_Vf041ZoasqlNyQm-11" value="" style="shape=partialRectangle;html=1;whiteSpace=wrap;connectable=0;strokeColor=inherit;overflow=hidden;fillColor=none;top=0;left=0;bottom=0;right=0;pointerEvents=1;" vertex="1" parent="mykr_Vf041ZoasqlNyQm-7">
          <mxGeometry x="320" width="120" height="50" as="geometry">
            <mxRectangle width="120" height="50" as="alternateBounds" />
          </mxGeometry>
        </mxCell>
        <mxCell id="mykr_Vf041ZoasqlNyQm-12" value="" style="shape=tableRow;horizontal=0;startSize=0;swimlaneHead=0;swimlaneBody=0;strokeColor=inherit;top=0;left=0;bottom=0;right=0;collapsible=0;dropTarget=0;fillColor=none;points=[[0,0.5],[1,0.5]];portConstraint=eastwest;" vertex="1" parent="mykr_Vf041ZoasqlNyQm-1">
          <mxGeometry y="100" width="440" height="50" as="geometry" />
        </mxCell>
        <mxCell id="mykr_Vf041ZoasqlNyQm-13" value="Fout" style="shape=partialRectangle;html=1;whiteSpace=wrap;connectable=0;strokeColor=inherit;overflow=hidden;fillColor=none;top=0;left=0;bottom=0;right=0;pointerEvents=1;" vertex="1" parent="mykr_Vf041ZoasqlNyQm-12">
          <mxGeometry width="65" height="50" as="geometry">
            <mxRectangle width="65" height="50" as="alternateBounds" />
          </mxGeometry>
        </mxCell>
        <mxCell id="mykr_Vf041ZoasqlNyQm-14" value="" style="shape=partialRectangle;html=1;whiteSpace=wrap;connectable=0;strokeColor=inherit;overflow=hidden;fillColor=none;top=0;left=0;bottom=0;right=0;pointerEvents=1;" vertex="1" parent="mykr_Vf041ZoasqlNyQm-12">
          <mxGeometry x="65" width="125" height="50" as="geometry">
            <mxRectangle width="125" height="50" as="alternateBounds" />
          </mxGeometry>
        </mxCell>
        <mxCell id="mykr_Vf041ZoasqlNyQm-15" value="" style="shape=partialRectangle;html=1;whiteSpace=wrap;connectable=0;strokeColor=inherit;overflow=hidden;fillColor=none;top=0;left=0;bottom=0;right=0;pointerEvents=1;" vertex="1" parent="mykr_Vf041ZoasqlNyQm-12">
          <mxGeometry x="190" width="130" height="50" as="geometry">
            <mxRectangle width="130" height="50" as="alternateBounds" />
          </mxGeometry>
        </mxCell>
        <mxCell id="mykr_Vf041ZoasqlNyQm-16" value="" style="shape=partialRectangle;html=1;whiteSpace=wrap;connectable=0;strokeColor=inherit;overflow=hidden;fillColor=none;top=0;left=0;bottom=0;right=0;pointerEvents=1;" vertex="1" parent="mykr_Vf041ZoasqlNyQm-12">
          <mxGeometry x="320" width="120" height="50" as="geometry">
            <mxRectangle width="120" height="50" as="alternateBounds" />
          </mxGeometry>
        </mxCell>
        <mxCell id="mykr_Vf041ZoasqlNyQm-17" value="" style="shape=tableRow;horizontal=0;startSize=0;swimlaneHead=0;swimlaneBody=0;strokeColor=inherit;top=0;left=0;bottom=0;right=0;collapsible=0;dropTarget=0;fillColor=none;points=[[0,0.5],[1,0.5]];portConstraint=eastwest;" vertex="1" parent="mykr_Vf041ZoasqlNyQm-1">
          <mxGeometry y="150" width="440" height="50" as="geometry" />
        </mxCell>
        <mxCell id="mykr_Vf041ZoasqlNyQm-18" value="VI_H" style="shape=partialRectangle;html=1;whiteSpace=wrap;connectable=0;strokeColor=inherit;overflow=hidden;fillColor=none;top=0;left=0;bottom=0;right=0;pointerEvents=1;" vertex="1" parent="mykr_Vf041ZoasqlNyQm-17">
          <mxGeometry width="65" height="50" as="geometry">
            <mxRectangle width="65" height="50" as="alternateBounds" />
          </mxGeometry>
        </mxCell>
        <mxCell id="mykr_Vf041ZoasqlNyQm-19" value="" style="shape=partialRectangle;html=1;whiteSpace=wrap;connectable=0;strokeColor=inherit;overflow=hidden;fillColor=none;top=0;left=0;bottom=0;right=0;pointerEvents=1;" vertex="1" parent="mykr_Vf041ZoasqlNyQm-17">
          <mxGeometry x="65" width="125" height="50" as="geometry">
            <mxRectangle width="125" height="50" as="alternateBounds" />
          </mxGeometry>
        </mxCell>
        <mxCell id="mykr_Vf041ZoasqlNyQm-20" value="" style="shape=partialRectangle;html=1;whiteSpace=wrap;connectable=0;strokeColor=inherit;overflow=hidden;fillColor=none;top=0;left=0;bottom=0;right=0;pointerEvents=1;" vertex="1" parent="mykr_Vf041ZoasqlNyQm-17">
          <mxGeometry x="190" width="130" height="50" as="geometry">
            <mxRectangle width="130" height="50" as="alternateBounds" />
          </mxGeometry>
        </mxCell>
        <mxCell id="mykr_Vf041ZoasqlNyQm-21" value="" style="shape=partialRectangle;html=1;whiteSpace=wrap;connectable=0;strokeColor=inherit;overflow=hidden;fillColor=none;top=0;left=0;bottom=0;right=0;pointerEvents=1;" vertex="1" parent="mykr_Vf041ZoasqlNyQm-17">
          <mxGeometry x="320" width="120" height="50" as="geometry">
            <mxRectangle width="120" height="50" as="alternateBounds" />
          </mxGeometry>
        </mxCell>
        <mxCell id="mykr_Vf041ZoasqlNyQm-22" value="" style="shape=tableRow;horizontal=0;startSize=0;swimlaneHead=0;swimlaneBody=0;strokeColor=inherit;top=0;left=0;bottom=0;right=0;collapsible=0;dropTarget=0;fillColor=none;points=[[0,0.5],[1,0.5]];portConstraint=eastwest;" vertex="1" parent="mykr_Vf041ZoasqlNyQm-1">
          <mxGeometry y="200" width="440" height="50" as="geometry" />
        </mxCell>
        <mxCell id="mykr_Vf041ZoasqlNyQm-23" value="VI_L" style="shape=partialRectangle;html=1;whiteSpace=wrap;connectable=0;strokeColor=inherit;overflow=hidden;fillColor=none;top=0;left=0;bottom=0;right=0;pointerEvents=1;" vertex="1" parent="mykr_Vf041ZoasqlNyQm-22">
          <mxGeometry width="65" height="50" as="geometry">
            <mxRectangle width="65" height="50" as="alternateBounds" />
          </mxGeometry>
        </mxCell>
        <mxCell id="mykr_Vf041ZoasqlNyQm-24" value="" style="shape=partialRectangle;html=1;whiteSpace=wrap;connectable=0;strokeColor=inherit;overflow=hidden;fillColor=none;top=0;left=0;bottom=0;right=0;pointerEvents=1;" vertex="1" parent="mykr_Vf041ZoasqlNyQm-22">
          <mxGeometry x="65" width="125" height="50" as="geometry">
            <mxRectangle width="125" height="50" as="alternateBounds" />
          </mxGeometry>
        </mxCell>
        <mxCell id="mykr_Vf041ZoasqlNyQm-25" value="" style="shape=partialRectangle;html=1;whiteSpace=wrap;connectable=0;strokeColor=inherit;overflow=hidden;fillColor=none;top=0;left=0;bottom=0;right=0;pointerEvents=1;" vertex="1" parent="mykr_Vf041ZoasqlNyQm-22">
          <mxGeometry x="190" width="130" height="50" as="geometry">
            <mxRectangle width="130" height="50" as="alternateBounds" />
          </mxGeometry>
        </mxCell>
        <mxCell id="mykr_Vf041ZoasqlNyQm-26" value="" style="shape=partialRectangle;html=1;whiteSpace=wrap;connectable=0;strokeColor=inherit;overflow=hidden;fillColor=none;top=0;left=0;bottom=0;right=0;pointerEvents=1;" vertex="1" parent="mykr_Vf041ZoasqlNyQm-22">
          <mxGeometry x="320" width="120" height="50" as="geometry">
            <mxRectangle width="120" height="50" as="alternateBounds" />
          </mxGeometry>
        </mxCell>
        <mxCell id="mykr_Vf041ZoasqlNyQm-27" value="" style="shape=tableRow;horizontal=0;startSize=0;swimlaneHead=0;swimlaneBody=0;strokeColor=inherit;top=0;left=0;bottom=0;right=0;collapsible=0;dropTarget=0;fillColor=none;points=[[0,0.5],[1,0.5]];portConstraint=eastwest;" vertex="1" parent="mykr_Vf041ZoasqlNyQm-1">
          <mxGeometry y="250" width="440" height="50" as="geometry" />
        </mxCell>
        <mxCell id="mykr_Vf041ZoasqlNyQm-28" value="VO_H" style="shape=partialRectangle;html=1;whiteSpace=wrap;connectable=0;strokeColor=inherit;overflow=hidden;fillColor=none;top=0;left=0;bottom=0;right=0;pointerEvents=1;" vertex="1" parent="mykr_Vf041ZoasqlNyQm-27">
          <mxGeometry width="65" height="50" as="geometry">
            <mxRectangle width="65" height="50" as="alternateBounds" />
          </mxGeometry>
        </mxCell>
        <mxCell id="mykr_Vf041ZoasqlNyQm-29" value="" style="shape=partialRectangle;html=1;whiteSpace=wrap;connectable=0;strokeColor=inherit;overflow=hidden;fillColor=none;top=0;left=0;bottom=0;right=0;pointerEvents=1;" vertex="1" parent="mykr_Vf041ZoasqlNyQm-27">
          <mxGeometry x="65" width="125" height="50" as="geometry">
            <mxRectangle width="125" height="50" as="alternateBounds" />
          </mxGeometry>
        </mxCell>
        <mxCell id="mykr_Vf041ZoasqlNyQm-30" value="" style="shape=partialRectangle;html=1;whiteSpace=wrap;connectable=0;strokeColor=inherit;overflow=hidden;fillColor=none;top=0;left=0;bottom=0;right=0;pointerEvents=1;" vertex="1" parent="mykr_Vf041ZoasqlNyQm-27">
          <mxGeometry x="190" width="130" height="50" as="geometry">
            <mxRectangle width="130" height="50" as="alternateBounds" />
          </mxGeometry>
        </mxCell>
        <mxCell id="mykr_Vf041ZoasqlNyQm-31" value="" style="shape=partialRectangle;html=1;whiteSpace=wrap;connectable=0;strokeColor=inherit;overflow=hidden;fillColor=none;top=0;left=0;bottom=0;right=0;pointerEvents=1;" vertex="1" parent="mykr_Vf041ZoasqlNyQm-27">
          <mxGeometry x="320" width="120" height="50" as="geometry">
            <mxRectangle width="120" height="50" as="alternateBounds" />
          </mxGeometry>
        </mxCell>
        <mxCell id="mykr_Vf041ZoasqlNyQm-32" value="" style="shape=tableRow;horizontal=0;startSize=0;swimlaneHead=0;swimlaneBody=0;strokeColor=inherit;top=0;left=0;bottom=0;right=0;collapsible=0;dropTarget=0;fillColor=none;points=[[0,0.5],[1,0.5]];portConstraint=eastwest;" vertex="1" parent="mykr_Vf041ZoasqlNyQm-1">
          <mxGeometry y="300" width="440" height="50" as="geometry" />
        </mxCell>
        <mxCell id="mykr_Vf041ZoasqlNyQm-33" value="VO_L" style="shape=partialRectangle;html=1;whiteSpace=wrap;connectable=0;strokeColor=inherit;overflow=hidden;fillColor=none;top=0;left=0;bottom=0;right=0;pointerEvents=1;" vertex="1" parent="mykr_Vf041ZoasqlNyQm-32">
          <mxGeometry width="65" height="50" as="geometry">
            <mxRectangle width="65" height="50" as="alternateBounds" />
          </mxGeometry>
        </mxCell>
        <mxCell id="mykr_Vf041ZoasqlNyQm-34" value="" style="shape=partialRectangle;html=1;whiteSpace=wrap;connectable=0;strokeColor=inherit;overflow=hidden;fillColor=none;top=0;left=0;bottom=0;right=0;pointerEvents=1;" vertex="1" parent="mykr_Vf041ZoasqlNyQm-32">
          <mxGeometry x="65" width="125" height="50" as="geometry">
            <mxRectangle width="125" height="50" as="alternateBounds" />
          </mxGeometry>
        </mxCell>
        <mxCell id="mykr_Vf041ZoasqlNyQm-35" value="" style="shape=partialRectangle;html=1;whiteSpace=wrap;connectable=0;strokeColor=inherit;overflow=hidden;fillColor=none;top=0;left=0;bottom=0;right=0;pointerEvents=1;" vertex="1" parent="mykr_Vf041ZoasqlNyQm-32">
          <mxGeometry x="190" width="130" height="50" as="geometry">
            <mxRectangle width="130" height="50" as="alternateBounds" />
          </mxGeometry>
        </mxCell>
        <mxCell id="mykr_Vf041ZoasqlNyQm-36" value="" style="shape=partialRectangle;html=1;whiteSpace=wrap;connectable=0;strokeColor=inherit;overflow=hidden;fillColor=none;top=0;left=0;bottom=0;right=0;pointerEvents=1;" vertex="1" parent="mykr_Vf041ZoasqlNyQm-32">
          <mxGeometry x="320" width="120" height="50" as="geometry">
            <mxRectangle width="120" height="50" as="alternateBounds" />
          </mxGeometry>
        </mxCell>
        <mxCell id="mykr_Vf041ZoasqlNyQm-37" value="" style="shape=tableRow;horizontal=0;startSize=0;swimlaneHead=0;swimlaneBody=0;strokeColor=inherit;top=0;left=0;bottom=0;right=0;collapsible=0;dropTarget=0;fillColor=none;points=[[0,0.5],[1,0.5]];portConstraint=eastwest;" vertex="1" parent="mykr_Vf041ZoasqlNyQm-1">
          <mxGeometry y="350" width="440" height="50" as="geometry" />
        </mxCell>
        <mxCell id="mykr_Vf041ZoasqlNyQm-38" value="" style="shape=partialRectangle;html=1;whiteSpace=wrap;connectable=0;strokeColor=inherit;overflow=hidden;fillColor=none;top=0;left=0;bottom=0;right=0;pointerEvents=1;" vertex="1" parent="mykr_Vf041ZoasqlNyQm-37">
          <mxGeometry width="65" height="50" as="geometry">
            <mxRectangle width="65" height="50" as="alternateBounds" />
          </mxGeometry>
        </mxCell>
        <mxCell id="mykr_Vf041ZoasqlNyQm-39" value="" style="shape=partialRectangle;html=1;whiteSpace=wrap;connectable=0;strokeColor=inherit;overflow=hidden;fillColor=none;top=0;left=0;bottom=0;right=0;pointerEvents=1;" vertex="1" parent="mykr_Vf041ZoasqlNyQm-37">
          <mxGeometry x="65" width="125" height="50" as="geometry">
            <mxRectangle width="125" height="50" as="alternateBounds" />
          </mxGeometry>
        </mxCell>
        <mxCell id="mykr_Vf041ZoasqlNyQm-40" value="" style="shape=partialRectangle;html=1;whiteSpace=wrap;connectable=0;strokeColor=inherit;overflow=hidden;fillColor=none;top=0;left=0;bottom=0;right=0;pointerEvents=1;" vertex="1" parent="mykr_Vf041ZoasqlNyQm-37">
          <mxGeometry x="190" width="130" height="50" as="geometry">
            <mxRectangle width="130" height="50" as="alternateBounds" />
          </mxGeometry>
        </mxCell>
        <mxCell id="mykr_Vf041ZoasqlNyQm-41" value="" style="shape=partialRectangle;html=1;whiteSpace=wrap;connectable=0;strokeColor=inherit;overflow=hidden;fillColor=none;top=0;left=0;bottom=0;right=0;pointerEvents=1;" vertex="1" parent="mykr_Vf041ZoasqlNyQm-37">
          <mxGeometry x="320" width="120" height="50" as="geometry">
            <mxRectangle width="120" height="50" as="alternateBounds" />
          </mxGeometry>
        </mxCell>
        <mxCell id="mykr_Vf041ZoasqlNyQm-42" value="" style="shape=tableRow;horizontal=0;startSize=0;swimlaneHead=0;swimlaneBody=0;strokeColor=inherit;top=0;left=0;bottom=0;right=0;collapsible=0;dropTarget=0;fillColor=none;points=[[0,0.5],[1,0.5]];portConstraint=eastwest;" vertex="1" parent="mykr_Vf041ZoasqlNyQm-1">
          <mxGeometry y="400" width="440" height="50" as="geometry" />
        </mxCell>
        <mxCell id="mykr_Vf041ZoasqlNyQm-43" value="" style="shape=partialRectangle;html=1;whiteSpace=wrap;connectable=0;strokeColor=inherit;overflow=hidden;fillColor=none;top=0;left=0;bottom=0;right=0;pointerEvents=1;" vertex="1" parent="mykr_Vf041ZoasqlNyQm-42">
          <mxGeometry width="65" height="50" as="geometry">
            <mxRectangle width="65" height="50" as="alternateBounds" />
          </mxGeometry>
        </mxCell>
        <mxCell id="mykr_Vf041ZoasqlNyQm-44" value="" style="shape=partialRectangle;html=1;whiteSpace=wrap;connectable=0;strokeColor=inherit;overflow=hidden;fillColor=none;top=0;left=0;bottom=0;right=0;pointerEvents=1;" vertex="1" parent="mykr_Vf041ZoasqlNyQm-42">
          <mxGeometry x="65" width="125" height="50" as="geometry">
            <mxRectangle width="125" height="50" as="alternateBounds" />
          </mxGeometry>
        </mxCell>
        <mxCell id="mykr_Vf041ZoasqlNyQm-45" value="" style="shape=partialRectangle;html=1;whiteSpace=wrap;connectable=0;strokeColor=inherit;overflow=hidden;fillColor=none;top=0;left=0;bottom=0;right=0;pointerEvents=1;" vertex="1" parent="mykr_Vf041ZoasqlNyQm-42">
          <mxGeometry x="190" width="130" height="50" as="geometry">
            <mxRectangle width="130" height="50" as="alternateBounds" />
          </mxGeometry>
        </mxCell>
        <mxCell id="mykr_Vf041ZoasqlNyQm-46" value="" style="shape=partialRectangle;html=1;whiteSpace=wrap;connectable=0;strokeColor=inherit;overflow=hidden;fillColor=none;top=0;left=0;bottom=0;right=0;pointerEvents=1;" vertex="1" parent="mykr_Vf041ZoasqlNyQm-42">
          <mxGeometry x="320" width="120" height="50" as="geometry">
            <mxRectangle width="120" height="50" as="alternateBounds" />
          </mxGeometry>
        </mxCell>
      </root>
    </mxGraphModel>
  </diagram>
</mxfile>
